<svg xmlns="http://www.w3.org/2000/svg" width="22.031" height="22" viewBox="0 0 22.031 22">
  <defs>
    <style>
      .cls-1 {
        fill: #ff5816;
        fill-rule: evenodd;
      }
    </style>
  </defs>
  <path id="Forma_1" data-name="Forma 1" class="cls-1" d="M518.69,120.037l-5.43-5.445a8.664,8.664,0,0,0,2.161-5.71,9.218,9.218,0,1,0-9.211,8.883,9.345,9.345,0,0,0,5.277-1.608l5.472,5.487a1.233,1.233,0,0,0,1.7.032A1.131,1.131,0,0,0,518.69,120.037Zm-12.48-17.72a6.569,6.569,0,1,1-6.809,6.565A6.7,6.7,0,0,1,506.21,102.317Z" transform="translate(-497 -100)"/>
</svg>
